<svg xmlns="http://www.w3.org/2000/svg" version="1.0" width="15" height="15" viewBox="0 0 225.000000 225.000000" preserveAspectRatio="xMidYMid meet" style="border-left: 2px solid #ffffff; border-right: 2px solid #ffffff; background-color: #ffffff; border-radius: 3px;">
    <g transform="translate(0.000000,225.000000) scale(0.100000,-0.100000)" fill="#0156d9" stroke="#0156d9">
        <path d="M244 2191 c-72 -6 -85 -10 -131 -44 -35 -25 -60 -55 -77 -89 l-26 -52 0 -668 c0 -660 0 -669 21 -711 28 -55 64 -94 114 -120 38 -21 56 -22 380 -27 l340 -5 5 -63 c7 -86 23 -98 137 -107 47 -4 138 -5 201 -3 148 7 165 17 172 109 l5 64 340 5 c382 6 382 6 451 82 67 75 64 38 64 780 l0 673 -30 52 c-18 31 -48 65 -77 84 -42 29 -58 33 -142 40 -112 9 -1628 9 -1747 0z m1808 -189 l23 -23 3" fill="#0156d9"/>
    </g>
</svg>